<?xml version="1.0" encoding="UTF-8" ?>
<svg version="1.1" width="32" height="32" xmlns="http://www.w3.org/2000/svg" shape-rendering="crispEdges">
<rect x="12" y="10" width="1" height="1" fill="#000000" />
<rect x="13" y="10" width="1" height="1" fill="#000000" />
<rect x="14" y="10" width="1" height="1" fill="#000000" />
<rect x="15" y="10" width="1" height="1" fill="#000000" />
<rect x="16" y="10" width="1" height="1" fill="#000000" />
<rect x="17" y="10" width="1" height="1" fill="#000000" />
<rect x="18" y="10" width="1" height="1" fill="#000000" />
<rect x="19" y="10" width="1" height="1" fill="#000000" />
<rect x="12" y="11" width="1" height="1" fill="#000000" />
<rect x="19" y="11" width="1" height="1" fill="#000000" />
<rect x="12" y="12" width="1" height="1" fill="#000000" />
<rect x="19" y="12" width="1" height="1" fill="#000000" />
<rect x="12" y="13" width="1" height="1" fill="#000000" />
<rect x="17" y="13" width="1" height="1" fill="#000000" />
<rect x="19" y="13" width="1" height="1" fill="#000000" />
<rect x="12" y="14" width="1" height="1" fill="#000000" />
<rect x="17" y="14" width="1" height="1" fill="#000000" />
<rect x="19" y="14" width="1" height="1" fill="#000000" />
<rect x="12" y="15" width="1" height="1" fill="#000000" />
<rect x="19" y="15" width="1" height="1" fill="#000000" />
<rect x="12" y="16" width="1" height="1" fill="#000000" />
<rect x="19" y="16" width="1" height="1" fill="#000000" />
<rect x="8" y="17" width="1" height="1" fill="#000000" />
<rect x="9" y="17" width="1" height="1" fill="#000000" />
<rect x="10" y="17" width="1" height="1" fill="#000000" />
<rect x="11" y="17" width="1" height="1" fill="#000000" />
<rect x="12" y="17" width="1" height="1" fill="#000000" />
<rect x="13" y="17" width="1" height="1" fill="#000000" />
<rect x="14" y="17" width="1" height="1" fill="#000000" />
<rect x="15" y="17" width="1" height="1" fill="#000000" />
<rect x="16" y="17" width="1" height="1" fill="#000000" />
<rect x="17" y="17" width="1" height="1" fill="#000000" />
<rect x="18" y="17" width="1" height="1" fill="#000000" />
<rect x="19" y="17" width="1" height="1" fill="#000000" />
<rect x="20" y="17" width="1" height="1" fill="#000000" />
<rect x="21" y="17" width="1" height="1" fill="#000000" />
<rect x="22" y="17" width="1" height="1" fill="#000000" />
<rect x="23" y="17" width="1" height="1" fill="#000000" />
<rect x="8" y="18" width="1" height="1" fill="#000000" />
<rect x="23" y="18" width="1" height="1" fill="#000000" />
<rect x="8" y="19" width="1" height="1" fill="#000000" />
<rect x="23" y="19" width="1" height="1" fill="#000000" />
<rect x="8" y="20" width="1" height="1" fill="#000000" />
<rect x="23" y="20" width="1" height="1" fill="#000000" />
<rect x="8" y="21" width="1" height="1" fill="#000000" />
<rect x="23" y="21" width="1" height="1" fill="#000000" />
<rect x="8" y="22" width="1" height="1" fill="#000000" />
<rect x="23" y="22" width="1" height="1" fill="#000000" />
<rect x="8" y="23" width="1" height="1" fill="#000000" />
<rect x="15" y="23" width="1" height="1" fill="#000000" />
<rect x="23" y="23" width="1" height="1" fill="#000000" />
<rect x="8" y="24" width="1" height="1" fill="#000000" />
<rect x="15" y="24" width="1" height="1" fill="#000000" />
<rect x="23" y="24" width="1" height="1" fill="#000000" />
<rect x="8" y="25" width="1" height="1" fill="#000000" />
<rect x="16" y="25" width="1" height="1" fill="#000000" />
<rect x="23" y="25" width="1" height="1" fill="#000000" />
<rect x="8" y="26" width="1" height="1" fill="#000000" />
<rect x="16" y="26" width="1" height="1" fill="#000000" />
<rect x="23" y="26" width="1" height="1" fill="#000000" />
<rect x="8" y="27" width="1" height="1" fill="#000000" />
<rect x="17" y="27" width="1" height="1" fill="#000000" />
<rect x="23" y="27" width="1" height="1" fill="#000000" />
<rect x="8" y="28" width="1" height="1" fill="#000000" />
<rect x="23" y="28" width="1" height="1" fill="#000000" />
<rect x="8" y="29" width="1" height="1" fill="#000000" />
<rect x="23" y="29" width="1" height="1" fill="#000000" />
<rect x="8" y="30" width="1" height="1" fill="#000000" />
<rect x="23" y="30" width="1" height="1" fill="#000000" />
<rect x="8" y="31" width="1" height="1" fill="#000000" />
<rect x="9" y="31" width="1" height="1" fill="#000000" />
<rect x="10" y="31" width="1" height="1" fill="#000000" />
<rect x="11" y="31" width="1" height="1" fill="#000000" />
<rect x="12" y="31" width="1" height="1" fill="#000000" />
<rect x="13" y="31" width="1" height="1" fill="#000000" />
<rect x="14" y="31" width="1" height="1" fill="#000000" />
<rect x="15" y="31" width="1" height="1" fill="#000000" />
<rect x="16" y="31" width="1" height="1" fill="#000000" />
<rect x="17" y="31" width="1" height="1" fill="#000000" />
<rect x="18" y="31" width="1" height="1" fill="#000000" />
<rect x="19" y="31" width="1" height="1" fill="#000000" />
<rect x="20" y="31" width="1" height="1" fill="#000000" />
<rect x="21" y="31" width="1" height="1" fill="#000000" />
<rect x="22" y="31" width="1" height="1" fill="#000000" />
<rect x="23" y="31" width="1" height="1" fill="#000000" />
</svg>